<?xml version="1.0" encoding="utf-8"?>
<!-- Generator: Adobe Illustrator 19.0.0, SVG Export Plug-In . SVG Version: 6.00 Build 0)  -->
<svg version="1.1" id="Layer_1" xmlns="http://www.w3.org/2000/svg" xmlns:xlink="http://www.w3.org/1999/xlink" x="0px" y="0px"
	 viewBox="0 0 400 400" style="enable-background:new 0 0 400 400;" xml:space="preserve">
<style type="text/css">
	.st0{fill:#31BFEF;}
	.st1{fill:#17264E;}
	.st2{fill:#FBE00B;}
</style>
<g id="XMLID_8_">
	<path id="XMLID_13_" class="st0" d="M113.9,242.1L113.9,242.1c-22.4-27.6-18.2-68,9.4-90.4l148-120.1l0,0
		c22.4,27.6,18.2,68-9.4,90.4L113.9,242.1z"/>
	<path id="XMLID_10_" class="st1" d="M161.7,301.1L161.7,301.1c-22.4-27.6-18.2-68,9.4-90.4l104.6-84.8l0,0
		c22.4,27.6,18.2,68-9.4,90.4L161.7,301.1z"/>
	<path id="XMLID_9_" class="st2" d="M209.5,360L209.5,360c-22.4-27.6-18.2-68,9.4-90.4l38.5-31.2l0,0c22.4,27.6,18.2,68-9.4,90.4
		L209.5,360z"/>
</g>
</svg>
